<svg xmlns="http://www.w3.org/2000/svg" xmlns:xlink="http://www.w3.org/1999/xlink" version="1.1" id="v-2" width="1050" height="1000"><g id="v-3" class="viewport"><g id="j_1" model-id="c57d6be3-1656-4977-87ad-45d3a0d9892e" class="element uml Actor" fill="#FFFFFF" stroke="none" transform="translate(100,82)"><g class="rotatable" id="v-8" transform="rotate(0,21.5,39)"><circle id="v-9" cx="21" cy="15" fill="#fcfcfc" r="10" stroke="black" stroke-dasharray="none" stroke-width="2"/><line fill="#fcfcfc" stroke="black" stroke-dasharray="none" stroke-width="2" x1="21" x2="21" y1="25" y2="50"/><line fill="#fcfcfc" stroke="black" stroke-dasharray="none" stroke-width="2" x1="21" x2="6" y1="50" y2="70"/><line fill="#fcfcfc" stroke="black" stroke-dasharray="none" stroke-width="2" x1="21" x2="36" y1="50" y2="70"/><line fill="#fcfcfc" stroke="black" stroke-dasharray="none" stroke-width="2" x1="6" x2="36" y1="35" y2="35"/><text class="name" id="v-10" fill="black" y="96" text-anchor="middle" x="23" font-family="Arial" font-size="16">Actor</text></g></g><g id="j_2" model-id="6134cbfa-f9ba-48be-9309-58fb74d8e7b8" class="element uml Usecase" fill="#FFFFFF" stroke="none" transform="translate(416,54)"><g class="rotatable" id="v-11" transform="rotate(0,43,19)"><ellipse id="v-12" stroke="black" stroke-width="2" rx="40" ry="16" fill="white" cx="43" cy="19"/><text class="name" id="v-13" x="42" y="55" fill="black" text-anchor="middle" font-family="Arial" font-size="16">Usecase</text></g></g><g id="j_3" model-id="8ea84e20-7e10-48b7-b0e8-9096cc72c375" class="element uml Usecase" fill="#FFFFFF" stroke="none" transform="translate(393,211)"><g class="rotatable" id="v-14" transform="rotate(0,43,19)"><ellipse id="v-15" stroke="black" stroke-width="2" rx="40" ry="16" fill="white" cx="43" cy="19"/><text class="name" id="v-16" x="42" y="55" fill="black" text-anchor="middle" font-family="Arial" font-size="16">Usecase</text></g></g><g id="j_5" model-id="2ae435a1-043d-4db0-9300-5c1ef3d92711" class="uml Association link"><path class="connection" stroke="#aaa" id="v-28" stroke-width="2" fill="transparent" d="M 142 131 418 91"/><path class="marker-source" fill="black" stroke="black" id="v-29" transform="translate(142,131) scale(1,1) rotate(-8.246320724487305)"/><path class="marker-target" fill="black" stroke="black" id="v-30" transform="translate(418,91) scale(1,1) rotate(-188.24632263183594)"/><path class="connection-wrap" id="v-31" d="M 142 131 418 91" style="display: none;"/><g class="labels" id="v-32"/><g class="marker-vertices" id="v-33" opacity="0" style="display: none;"/><g class="marker-arrowheads" id="v-34" style="display: none;"><g class="marker-arrowhead-group marker-arrowhead-group-source" id="v-37" transform="translate(140.13541961727498,118.1344118829374) scale(1,1) rotate(-8.246320724487305)"><path class="marker-arrowhead" end="source" d="M 26 0 L 0 13 L 26 26 z" opacity="0"/></g><g class="marker-arrowhead-group marker-arrowhead-group-target" id="v-38" transform="translate(419.86456549015423,103.86558762670253) scale(1,1) rotate(-188.24632263183594)"><path class="marker-arrowhead" end="target" d="M 26 0 L 0 13 L 26 26 z" opacity="0"/></g></g><g class="link-tools" id="v-35" style="display: none;"><g class="link-tool" id="v-36" transform="translate(181.58642578125, 125.26283264160156) "><g class="tool-remove" event="remove"><circle r="11"/><path transform="scale(.8) translate(-16, -16)" d="M24.778,21.419 19.276,15.917 24.777,10.415 21.949,7.585 16.447,13.087 10.945,7.585 8.117,10.415 13.618,15.917 8.116,21.419 10.946,24.248 16.447,18.746 21.948,24.248z"/><title>Remove link.</title></g><g class="tool-options" event="link:options"><circle r="11" transform="translate(25)"/><path fill="white" transform="scale(.55) translate(29, -16)" d="M31.229,17.736c0.064-0.571,0.104-1.148,0.104-1.736s-0.04-1.166-0.104-1.737l-4.377-1.557c-0.218-0.716-0.504-1.401-0.851-2.05l1.993-4.192c-0.725-0.91-1.549-1.734-2.458-2.459l-4.193,1.994c-0.647-0.347-1.334-0.632-2.049-0.849l-1.558-4.378C17.165,0.708,16.588,0.667,16,0.667s-1.166,0.041-1.737,0.105L12.707,5.15c-0.716,0.217-1.401,0.502-2.05,0.849L6.464,4.005C5.554,4.73,4.73,5.554,4.005,6.464l1.994,4.192c-0.347,0.648-0.632,1.334-0.849,2.05l-4.378,1.557C0.708,14.834,0.667,15.412,0.667,16s0.041,1.165,0.105,1.736l4.378,1.558c0.217,0.715,0.502,1.401,0.849,2.049l-1.994,4.193c0.725,0.909,1.549,1.733,2.459,2.458l4.192-1.993c0.648,0.347,1.334,0.633,2.05,0.851l1.557,4.377c0.571,0.064,1.148,0.104,1.737,0.104c0.588,0,1.165-0.04,1.736-0.104l1.558-4.377c0.715-0.218,1.399-0.504,2.049-0.851l4.193,1.993c0.909-0.725,1.733-1.549,2.458-2.458l-1.993-4.193c0.347-0.647,0.633-1.334,0.851-2.049L31.229,17.736zM16,20.871c-2.69,0-4.872-2.182-4.872-4.871c0-2.69,2.182-4.872,4.872-4.872c2.689,0,4.871,2.182,4.871,4.872C20.871,18.689,18.689,20.871,16,20.871z"/><title>Link options.</title></g></g></g></g><g id="j_4" model-id="22f4830d-6f21-41a1-88ec-d42faae46317" class="uml Association link"><path class="connection" stroke="#aaa" id="v-17" stroke-width="2" fill="transparent" d="M 142 141 395 227"/><path class="marker-source" fill="black" stroke="black" id="v-18" transform="translate(142,141) scale(1,1) rotate(18.77398681640625)"/><path class="marker-target" fill="black" stroke="black" id="v-19" transform="translate(395,227) scale(1,1) rotate(-161.2260284423828)"/><path class="connection-wrap" id="v-20" d="M 142 141 395 227" style="display: none;"/><g class="labels" id="v-21"/><g class="marker-vertices" id="v-22" opacity="0" style="display: none;"/><g class="marker-arrowheads" id="v-23" style="display: none;"><g class="marker-arrowhead-group marker-arrowhead-group-source" id="v-26" transform="translate(146.18387470760763,128.6916609279853) scale(1,1) rotate(18.77398681640625)"><path class="marker-arrowhead" end="source" d="M 26 0 L 0 13 L 26 26 z" opacity="0"/></g><g class="marker-arrowhead-group marker-arrowhead-group-target" id="v-27" transform="translate(390.8161296845326,239.30833690833555) scale(1,1) rotate(-161.2260284423828)"><path class="marker-arrowhead" end="target" d="M 26 0 L 0 13 L 26 26 z" opacity="0"/></g></g><g class="link-tools" id="v-24" style="display: none;"><g class="link-tool" id="v-25" transform="translate(179.87184143066406, 153.87342834472656) "><g class="tool-remove" event="remove"><circle r="11"/><path transform="scale(.8) translate(-16, -16)" d="M24.778,21.419 19.276,15.917 24.777,10.415 21.949,7.585 16.447,13.087 10.945,7.585 8.117,10.415 13.618,15.917 8.116,21.419 10.946,24.248 16.447,18.746 21.948,24.248z"/><title>Remove link.</title></g><g class="tool-options" event="link:options"><circle r="11" transform="translate(25)"/><path fill="white" transform="scale(.55) translate(29, -16)" d="M31.229,17.736c0.064-0.571,0.104-1.148,0.104-1.736s-0.04-1.166-0.104-1.737l-4.377-1.557c-0.218-0.716-0.504-1.401-0.851-2.05l1.993-4.192c-0.725-0.91-1.549-1.734-2.458-2.459l-4.193,1.994c-0.647-0.347-1.334-0.632-2.049-0.849l-1.558-4.378C17.165,0.708,16.588,0.667,16,0.667s-1.166,0.041-1.737,0.105L12.707,5.15c-0.716,0.217-1.401,0.502-2.05,0.849L6.464,4.005C5.554,4.73,4.73,5.554,4.005,6.464l1.994,4.192c-0.347,0.648-0.632,1.334-0.849,2.05l-4.378,1.557C0.708,14.834,0.667,15.412,0.667,16s0.041,1.165,0.105,1.736l4.378,1.558c0.217,0.715,0.502,1.401,0.849,2.049l-1.994,4.193c0.725,0.909,1.549,1.733,2.459,2.458l4.192-1.993c0.648,0.347,1.334,0.633,2.05,0.851l1.557,4.377c0.571,0.064,1.148,0.104,1.737,0.104c0.588,0,1.165-0.04,1.736-0.104l1.558-4.377c0.715-0.218,1.399-0.504,2.049-0.851l4.193,1.993c0.909-0.725,1.733-1.549,2.458-2.458l-1.993-4.193c0.347-0.647,0.633-1.334,0.851-2.049L31.229,17.736zM16,20.871c-2.69,0-4.872-2.182-4.872-4.871c0-2.69,2.182-4.872,4.872-4.872c2.689,0,4.871,2.182,4.871,4.872C20.871,18.689,18.689,20.871,16,20.871z"/><title>Link options.</title></g></g></g></g></g><defs id="v-4"/></svg>